#tb 0: 1001/30000
0,          0,          0,        1,    58212, c980866a6f17d4107ce128ee112d74cf
0,          1,          1,        1,    58212, d4d5d2a10e73f1d09919355dc4d63d48
0,          2,          2,        1,    58212, 82c76ed020acb68ff9d8bd81899aa6f8
0,          3,          3,        1,    58212, 8330705fa354fb5838af56dcf9cc0980
0,          4,          4,        1,    58212, e47b63d839a592e6372d18249bf5bc0c
0,          5,          5,        1,    58212, b6095b6f752a50e96cab52e7c3fd52f3
0,          6,          6,        1,    58212, fc4786f48b6ee31043d94f79c5c8a54f
0,          7,          7,        1,    58212, 7d3d06c96496bd5ab44fe5489877771d
0,          8,          8,        1,    58212, 5b96de089a9faa2dc01697fe9dd97f7f
0,          9,          9,        1,    58212, d7361203b4c264067dcb7bf6912e8df2
